# xmcd CD database file
#
# Track frame offsets:
#	150
#	19867
#	35389
#	53128
#	69197
#	77956
#	93337
#	108843
#	133291
#	151207
#	168831
#	188378
#	202664
#	212712
#	222932
#	252573
#	268269
#	284168
#	301152
#	315633
#
# Disc length: 4390 seconds
#
# Revision: 1
# Processed by: cddbd v1.5.2PL0 Copyright (c) Steve Scherf et al.
# Submitted via: CDex 1.70beta2
#
DISCID=18112414
DTITLE=Big Brother and The Holding Co - Be A Brother and How Hard It Is
DYEAR=1971
DGENRE=Blues
TTITLE0=Keep On
TTITLE1=Joseph's Coat
TTITLE2=Home on The Strange
TTITLE3=Someday
TTITLE4=Heartache People
TTITLE5=Sunshine Baby
TTITLE6=Mr Natural
TTITLE7=Funkie Jim
TTITLE8=I''ll Change Your Flat Tire Merle
TTITLE9=Be A Brother
TTITLE10=How Hard It Is
TTITLE11=You've Been Talkin' Bout Me Baby
TTITLE12=House On Fire
TTITLE13=Black Widow Spider
TTITLE14=Last Band On Side One
TTITLE15=Nu Boogaloo Jam
TTITLE16=Maul
TTITLE17=Shine On
TTITLE18=Buried Alive In The Blues
TTITLE19=Promise Her Anything But Give Her Arpeggio
EXTD=YEAR: 1971
EXTT0=
EXTT1=
EXTT2=
EXTT3=
EXTT4=
EXTT5=
EXTT6=
EXTT7=
EXTT8=
EXTT9=
EXTT10=
EXTT11=
EXTT12=
EXTT13=
EXTT14=
EXTT15=
EXTT16=
EXTT17=
EXTT18=
EXTT19=
PLAYORDER=
